<?xml version="1.0" encoding="utf-8"?>
<svg xmlns="http://www.w3.org/2000/svg"
     viewBox="0 0 1200 1200">
    <title>TON</title>

    <defs>
        <linearGradient id="handle"
                        x1="1"
                        x2="0"
                        y1="1"
                        y2="0">
            <stop offset="0"
                  stop-color="#cdcd00" />
            <stop offset="1"
                  stop-color="#dede00"
                  stop-opacity="0.25" />
        </linearGradient>
        <linearGradient id="weight"
                        x1="1"
                        x2="0"
                        y1="1"
                        y2="0">
            <stop offset="0"
                  stop-color="#4d4d4d" />
            <stop offset="1"
                  stop-color="#5e5e5e"
                  stop-opacity="0.5" />
        </linearGradient>
    </defs>

    <path d="m600.98 75.004c-41.809-0.28516-83.719 14.129-117.37 43.184-67.305 58.094-81.383 157.42-32.941 231.98l31.281-20.484c-38.379-59.074-27.031-136.95 26.297-182.98 53.328-46.027 132.09-45.773 184.92 0.85156 52.828 46.602 62.82 124.88 23.805 183.53l31.281 20.762c49.238-74.027 36.223-173.44-30.449-232.25-33.336-29.406-75.012-44.34-116.82-44.566z" />
    <path d="m599.87 150.02c-56.734 0-102.98 46.246-102.98 102.98s46.246 103.25 102.98 103.25c56.73 0 103.25-46.523 103.25-103.25 0-56.734-46.52-102.98-103.25-102.98zm0 37.371c36.465 0 65.883 29.141 65.883 65.605s-29.418 65.883-65.883 65.883-65.605-29.418-65.605-65.883 29.141-65.605 65.605-65.605z" />
    <path d="m251.35 318.88c-27.281 0-50.711 19.625-55.363 46.508l-120.14 693.99c-5.8789 33.973 20.887 65.605 55.363 65.605h937.59c34.477 0 61.242-31.633 55.363-65.605l-120.14-693.99c-4.6523-26.879-28.082-46.508-55.363-46.508h-697.31zm0 37.371h697.31c9.2891 0 16.961 6.3477 18.547 15.5l120.14 693.99c2.0391 11.777-6.5977 21.871-18.547 21.871h-937.59c-11.949 0-20.586-10.09-18.547-21.871l120.14-693.99c1.5859-9.1562 9.2578-15.5 18.547-15.5z" />

    <g transform="scale(.75)">
        <path d="m798.27 146.32c-80.564 0.29872-156.09 57.137-179.96 133.91-15.038 47.927-11.031 103.03 13.112 146.98 18.886 3.3437 39.864 0.45798 59.544 1.424 11.963-5.9482-4.6198-16.617-7.0273-24.762-27.447-49.242-21.276-116.08 18.356-157.46 50.989-57.529 151.99-55.176 199.86 5.2983 24.988 27.348 33.416 65.924 29.124 102.21-0.0656 25.852-15.145 47.805-26.504 69.492 6.8104 11.163 27.345 2.5019 39.697 5.2224 13.256 1.0606 29.093 2.1057 30.696-15.121 37.812-84.122 4.4317-194.24-77.005-239.32-30.26-18.077-64.372-29.109-99.888-27.879z"
              fill="url(#handle)" />
        <path d="m322.1 473.4c-21.833 16.272-17.076 47.072-23.883 70.372-50.978 293.9-102.21 587.79-151.32 882-1.2953 16.098 14.186 28.505 29.667 25.921 202.69 3.2557 405.44 1.0702 608.15 1.5651 217.19-0.1679 434.38-0.3458 651.57-0.5175 16.62-8.2615 19.191-29.033 13.903-45.186-48.511-289.26-98.393-578.3-149.9-867.03-5.3104-19.968-4.8409-42.722-15.917-60.554-11.218-14.765-32.157-5.2227-47.972-7.9266h-910.88l-2.2063 0.87474z"
              fill="url(#weight)" />
    </g>

    <path d="m534.01 564.64c-18.571 0-32.984 5.2419-43.238 15.724-10.14 10.368-15.209 25.179-15.209 44.433 0 9.5703 1.1963 18.912 3.5889 28.027 2.3926 9.1146 3.5889 18.913 3.5889 29.395 0 3.8737-1.6515 7.3491-4.9556 10.425-3.1901 3.0762-7.2917 5.6956-12.305 7.8604-4.8991 2.0508-9.9701 3.6463-15.211 4.7856-5.127 1.0254-9.6838 1.5381-13.671 1.5381v27.001c5.4688 0 11.792 0.74105 18.97 2.2222 7.2917 1.3672 13.615 3.8732 18.97 7.519 5.4687 3.5319 8.2031 8.488 8.2031 14.868 0 10.026-1.1963 19.711-3.5889 29.054-2.3926 9.3424-3.5889 18.798-3.5889 28.368 0 19.938 5.0695 35.434 15.209 46.485 10.254 11.165 24.667 16.748 43.238 16.748 6.722 0 12.304-0.34179 16.748-1.0254 4.4434-0.56966 8.5449-1.3667 12.305-2.3921l-4.1016-29.054c-3.9876 0.45573-7.8608 0.85498-11.621 1.1968-3.6458 0.3418-7.0638 0.5127-10.254 0.5127-8.0892 0-14.299-2.7918-18.628-8.3745-4.2155-5.6966-6.3223-13.729-6.3223-24.097 0-9.4564 1.3097-18.685 3.9302-27.686s3.9302-18.684 3.9302-29.052c0-10.824-3.9307-19.426-11.792-25.806-7.8613-6.4941-18.855-9.8547-32.982-10.083v-5.811c14.128-0.22786 25.121-3.4175 32.982-9.5698 7.8613-6.2663 11.792-15.04 11.792-26.319 0-9.9121-1.3097-19.368-3.9302-28.368s-3.9302-18.458-3.9302-28.37c0-9.3424 2.1068-16.578 6.3223-21.705 4.3294-5.127 10.539-7.6904 18.628-7.6904 3.1901 0 6.6081 0.1709 10.254 0.5127 3.7598 0.22786 7.633 0.62711 11.621 1.1968l4.1016-29.052c-3.7598-1.0254-7.8613-1.8239-12.305-2.3936-4.4434-0.68359-10.026-1.0254-16.748-1.0254zm131.59 0c-6.6081 0-12.19 0.3418-16.748 1.0254-4.4434 0.56966-8.5449 1.3682-12.305 2.3936l4.1016 29.052c3.9876-0.56966 7.8048-0.96891 11.451-1.1968 3.7598-0.3418 7.2337-0.5127 10.424-0.5127 8.0892 0 14.242 2.5635 18.457 7.6904 4.3294 5.127 6.4951 12.362 6.4951 21.705 0 9.9121-1.3112 19.369-3.9316 28.37s-3.9302 18.456-3.9302 28.368c0 11.279 3.9307 20.053 11.792 26.319 7.8613 6.1523 18.856 9.342 32.984 9.5698v5.811c-14.128 0.22786-25.123 3.5884-32.984 10.083-7.8613 6.3802-11.792 14.983-11.792 25.806 0 10.368 1.3097 20.052 3.9302 29.052s3.9316 18.229 3.9316 27.686c0 10.368-2.1657 18.4-6.4951 24.097-4.2155 5.5827-10.368 8.3745-18.457 8.3745-3.1901 0-6.6641-0.1709-10.424-0.5127-3.6458-0.3418-7.463-0.74105-11.451-1.1968l-4.1016 29.054c3.7598 1.0254 7.8613 1.8224 12.305 2.3921 4.5573 0.6836 10.14 1.0254 16.748 1.0254 18.571 0 32.926-5.5822 43.066-16.748 10.254-11.051 15.381-26.547 15.381-46.485 0-9.5703-1.1963-19.026-3.5889-28.368-2.3926-9.3424-3.5889-19.028-3.5889-29.054 0-6.3802 2.6784-11.336 8.0332-14.868 5.4687-3.6458 11.792-6.1519 18.97-7.519 7.2917-1.4811 13.671-2.2222 19.14-2.2222v-27.001c-3.8737 0-8.4305-0.5127-13.671-1.5381-5.2409-1.1393-10.368-2.7349-15.381-4.7856-4.8991-2.1647-9.0007-4.7842-12.305-7.8604-3.1901-3.0762-4.7856-6.5516-4.7856-10.425 0-10.482 1.1963-20.28 3.5889-29.395 2.3926-9.1146 3.5889-18.457 3.5889-28.027 0-19.255-5.127-34.065-15.381-44.433-10.14-10.482-24.495-15.724-43.066-15.724z"
          fill="#ff7f2a" />
</svg>
